<?xml version="1.0"?>
<svg xmlns="http://www.w3.org/2000/svg" xmlns:xlink="http://www.w3.org/1999/xlink" version="1.1" id="Capa_1" x="0px" y="0px" viewBox="0 0 512 512" style="enable-background:new 0 0 512 512;" xml:space="preserve" width="512px" height="512px"><g><g>
	<g>
		<path d="M484.5,122.5h-93V81.379c0-23.644-19.235-42.879-42.879-42.879H163.379c-23.644,0-42.879,19.235-42.879,42.879V122.5h-93    C12.336,122.5,0,134.837,0,150v40.667c0,4.143,3.358,7.5,7.5,7.5s7.5-3.357,7.5-7.5V150c0-6.893,5.607-12.5,12.5-12.5h145v15h-135    c-4.142,0-7.5,3.357-7.5,7.5v276c0,4.143,3.358,7.5,7.5,7.5h437c4.143,0,7.5-3.357,7.5-7.5v-20.667c0-4.143-3.357-7.5-7.5-7.5    s-7.5,3.357-7.5,7.5V428.5H45v-261h127.5v7.5c0,11.855,9.645,21.5,21.5,21.5h124c11.855,0,21.5-9.645,21.5-21.5v-7.5H467v215.833    c0,4.143,3.357,7.5,7.5,7.5s7.5-3.357,7.5-7.5V160c0-4.143-3.357-7.5-7.5-7.5h-135v-15h145c6.893,0,12.5,5.607,12.5,12.5v296    c0,6.893-5.607,12.5-12.5,12.5h-457c-6.893,0-12.5-5.607-12.5-12.5V224c0-4.143-3.358-7.5-7.5-7.5S0,219.857,0,224v222    c0,15.164,12.336,27.5,27.5,27.5h457c15.164,0,27.5-12.336,27.5-27.5V150C512,134.836,499.664,122.5,484.5,122.5z M346.5,122.5    h-7.006c-0.267-11.625-9.806-21-21.494-21H194c-11.688,0-21.227,9.375-21.494,21H165.5V85.336c0-1.013,0.824-1.836,1.836-1.836    h177.328c1.013,0,1.836,0.823,1.836,1.836V122.5z M324.5,175c0,3.584-2.916,6.5-6.5,6.5H194c-3.584,0-6.5-2.916-6.5-6.5v-52    c0-3.584,2.916-6.5,6.5-6.5h124c3.584,0,6.5,2.916,6.5,6.5V175z M361.5,122.5V85.336c0-9.283-7.553-16.836-16.836-16.836H167.336    c-9.283,0-16.836,7.553-16.836,16.836V122.5h-15V81.379c0-15.372,12.506-27.879,27.879-27.879h185.242    c15.372,0,27.879,12.507,27.879,27.879V122.5H361.5z" data-original="#000000" class="active-path" fill="#000000"/>
		<path d="M292,125.5h-8c-4.522,0-8.689,1.547-12,4.14c-3.311-2.593-7.478-4.14-12-4.14h-8c-4.522,0-8.689,1.547-12,4.14    c-3.311-2.592-7.478-4.14-12-4.14h-8c-10.752,0-19.5,8.748-19.5,19.5v8c0,10.752,8.748,19.5,19.5,19.5h8    c4.522,0,8.689-1.547,12-4.14c3.311,2.592,7.478,4.14,12,4.14h8c4.522,0,8.689-1.547,12-4.14c3.311,2.593,7.478,4.14,12,4.14h8    c10.752,0,19.5-8.748,19.5-19.5v-8C311.5,134.248,302.752,125.5,292,125.5z M228,157.5h-8c-2.481,0-4.5-2.019-4.5-4.5v-8    c0-2.481,2.019-4.5,4.5-4.5h8c2.481,0,4.5,2.019,4.5,4.5v8C232.5,155.481,230.481,157.5,228,157.5z M260,157.5h-8    c-2.481,0-4.5-2.019-4.5-4.5v-8c0-2.481,2.019-4.5,4.5-4.5h8c2.481,0,4.5,2.019,4.5,4.5v8C264.5,155.481,262.481,157.5,260,157.5z     M296.5,153c0,2.481-2.019,4.5-4.5,4.5h-8c-2.481,0-4.5-2.019-4.5-4.5v-8c0-2.481,2.019-4.5,4.5-4.5h8c2.481,0,4.5,2.019,4.5,4.5    V153z" data-original="#000000" class="active-path" fill="#000000"/>
		<path d="M239.583,413.25H319c9.649,0,17.5-7.851,17.5-17.5v-95.5c0-9.649-7.851-17.5-17.5-17.5h-2v-32.49    c0-20.683-16.827-37.51-37.51-37.51h-46.98c-20.683,0-37.51,16.827-37.51,37.51v32.49h-2c-9.649,0-17.5,7.851-17.5,17.5v95.5    c0,9.649,7.851,17.5,17.5,17.5h15.25c4.142,0,7.5-3.357,7.5-7.5s-3.358-7.5-7.5-7.5H193c-1.378,0-2.5-1.121-2.5-2.5v-95.5    c0-1.379,1.122-2.5,2.5-2.5h39.498c0.001,0,0.001,0,0.002,0H319c1.379,0,2.5,1.121,2.5,2.5v95.5c0,1.379-1.121,2.5-2.5,2.5    h-79.417c-4.142,0-7.5,3.357-7.5,7.5S235.441,413.25,239.583,413.25z M210,250.26c0-12.412,10.098-22.51,22.51-22.51h46.98    c12.412,0,22.51,10.098,22.51,22.51v32.49h-15v-32.49c0-4.142-3.356-7.499-7.498-7.5l-46.991-0.01c0,0,0,0-0.001,0    c-4.141,0-7.499,3.356-7.5,7.498l-0.008,32.502H210V250.26z M272,282.75h-31.998l0.006-24.998L272,257.758V282.75z" data-original="#000000" class="active-path" fill="#000000"/>
		<path d="M256,381.25c4.143,0,7.5-3.357,7.5-7.5v-18.883c8.73-3.096,15-11.437,15-21.215c0-12.406-10.094-22.5-22.5-22.5    c-12.407,0-22.5,10.094-22.5,22.5c0,9.778,6.27,18.119,15,21.215v18.883C248.5,377.893,251.858,381.25,256,381.25z M256,326.152    c4.136,0,7.5,3.364,7.5,7.5s-3.364,7.5-7.5,7.5s-7.5-3.364-7.5-7.5S251.864,326.152,256,326.152z" data-original="#000000" class="active-path" fill="#000000"/>
	</g>
</g></g> </svg>
